<svg width="113" height="113" viewBox="0 0 113 113" fill="none" xmlns="http://www.w3.org/2000/svg">
<path d="M84.75 42.375H45.9062C44.9316 42.375 44.1406 41.584 44.1406 40.6094C44.1406 39.6348 44.9316 38.8438 45.9062 38.8438H84.75C85.7246 38.8438 86.5156 39.6348 86.5156 40.6094C86.5156 41.584 85.7246 42.375 84.75 42.375ZM84.75 49.4375H45.9062C44.9316 49.4375 44.1406 48.6465 44.1406 47.6719C44.1406 46.6973 44.9316 45.9062 45.9062 45.9062H84.75C85.7246 45.9062 86.5156 46.6973 86.5156 47.6719C86.5156 48.6465 85.7246 49.4375 84.75 49.4375ZM38.8438 51.2031H28.25C27.2754 51.2031 26.4844 50.4121 26.4844 49.4375V38.8438C26.4844 37.8691 27.2754 37.0781 28.25 37.0781H38.8438C39.8184 37.0781 40.6094 37.8691 40.6094 38.8438V49.4375C40.6094 50.4121 39.8184 51.2031 38.8438 51.2031ZM30.0156 47.6719H37.0781V40.6094H30.0156V47.6719ZM84.75 61.7969H45.9062C44.9316 61.7969 44.1406 61.0059 44.1406 60.0312C44.1406 59.0566 44.9316 58.2656 45.9062 58.2656H84.75C85.7246 58.2656 86.5156 59.0566 86.5156 60.0312C86.5156 61.0059 85.7246 61.7969 84.75 61.7969ZM84.75 68.8594H45.9062C44.9316 68.8594 44.1406 68.0684 44.1406 67.0938C44.1406 66.1191 44.9316 65.3281 45.9062 65.3281H84.75C85.7246 65.3281 86.5156 66.1191 86.5156 67.0938C86.5156 68.0684 85.7246 68.8594 84.75 68.8594ZM38.8438 70.625H28.25C27.2754 70.625 26.4844 69.834 26.4844 68.8594V58.2656C26.4844 57.291 27.2754 56.5 28.25 56.5H38.8438C39.8184 56.5 40.6094 57.291 40.6094 58.2656V68.8594C40.6094 69.834 39.8184 70.625 38.8438 70.625ZM30.0156 67.0938H37.0781V60.0312H30.0156V67.0938ZM84.75 81.2188H45.9062C44.9316 81.2188 44.1406 80.4277 44.1406 79.4531C44.1406 78.4785 44.9316 77.6875 45.9062 77.6875H84.75C85.7246 77.6875 86.5156 78.4785 86.5156 79.4531C86.5156 80.4277 85.7246 81.2188 84.75 81.2188ZM84.75 88.2812H45.9062C44.9316 88.2812 44.1406 87.4902 44.1406 86.5156C44.1406 85.541 44.9316 84.75 45.9062 84.75H84.75C85.7246 84.75 86.5156 85.541 86.5156 86.5156C86.5156 87.4902 85.7246 88.2812 84.75 88.2812ZM38.8438 90.0469H28.25C27.2754 90.0469 26.4844 89.2559 26.4844 88.2812V77.6875C26.4844 76.7129 27.2754 75.9219 28.25 75.9219H38.8438C39.8184 75.9219 40.6094 76.7129 40.6094 77.6875V88.2812C40.6094 89.2559 39.8184 90.0469 38.8438 90.0469ZM30.0156 86.5156H37.0781V79.4531H30.0156V86.5156Z" fill="#17778D"/>
<path d="M98.852 26.3731C98.8415 26.2178 98.8114 26.0677 98.762 25.9194C98.7426 25.8629 98.7285 25.8081 98.702 25.7534C98.6155 25.5662 98.5078 25.3879 98.3559 25.2361L75.4045 2.28295C75.2527 2.13111 75.0726 2.02164 74.8854 1.93512C74.8342 1.91217 74.7813 1.89805 74.7266 1.87863C74.5747 1.82566 74.4211 1.79564 74.2622 1.78681C74.2251 1.78505 74.1933 1.76562 74.1562 1.76562H19.4219C16.5015 1.76562 14.125 4.14216 14.125 7.0625V105.938C14.125 108.858 16.5015 111.234 19.4219 111.234H93.5781C96.4985 111.234 98.875 108.858 98.875 105.938V26.4844C98.875 26.4455 98.8556 26.412 98.852 26.3731ZM92.8454 24.7188H77.6857C76.7129 24.7188 75.9201 23.926 75.9201 22.9531V7.79347L92.8454 24.7188ZM93.5764 107.703H19.4219C18.449 107.703 17.6562 106.91 17.6562 105.938V7.0625C17.6562 6.08964 18.449 5.29688 19.4219 5.29688H72.3906V22.9531C72.3906 25.8735 74.7672 28.25 77.6875 28.25H95.3438V105.938C95.3438 106.91 94.5492 107.703 93.5764 107.703Z" fill="#17778D"/>
</svg>
