<svg width="115" height="114" viewBox="0 0 115 114" fill="none" xmlns="http://www.w3.org/2000/svg">
<path d="M111.794 46.3125C111.132 45.6495 110.346 45.1235 109.481 44.7646C108.616 44.4058 107.688 44.221 106.751 44.221C105.815 44.221 104.887 44.4058 104.022 44.7646C103.156 45.1235 102.37 45.6495 101.709 46.3125L98.1461 49.875L86.682 61.3391V26.7188C86.6717 26.6418 86.6562 26.5656 86.6357 26.4907C86.6265 26.4162 86.6123 26.3424 86.5929 26.2699C86.5235 25.9669 86.3747 25.6878 86.1619 25.4612L61.2244 0.523687C60.9992 0.310086 60.7214 0.1601 60.4192 0.0890625C60.3479 0.0698419 60.2753 0.0555581 60.2019 0.0463125C60.1247 0.0254407 60.0462 0.0099658 59.9668 0L10.0918 0C7.72971 0 5.46437 0.938334 3.79413 2.60858C2.12388 4.27883 1.18555 6.54417 1.18555 8.90625V105.094C1.18555 107.456 2.12388 109.721 3.79413 111.391C5.46437 113.062 7.72971 114 10.0918 114H77.7793C78.9489 114 80.107 113.77 81.1876 113.322C82.2681 112.874 83.2499 112.218 84.077 111.391C84.904 110.564 85.56 109.583 86.0076 108.502C86.4552 107.421 86.6856 106.263 86.6856 105.094V81.4958L108.224 59.9569L111.787 56.3944C112.45 55.7331 112.976 54.9477 113.335 54.083C113.694 53.2183 113.88 52.2913 113.88 51.3549C113.881 50.4186 113.697 49.4913 113.339 48.6261C112.981 47.7609 112.456 46.9747 111.794 46.3125ZM61.7481 6.08119L80.6044 24.9375H67.0918C65.6746 24.9375 64.3153 24.3745 63.3132 23.3724C62.311 22.3702 61.7481 21.011 61.7481 19.5938V6.08119ZM60.0274 24.9375H17.2168C16.7444 24.9375 16.2913 24.7498 15.9573 24.4158C15.6232 24.0817 15.4355 23.6287 15.4355 23.1562V16.0312C15.4355 15.5588 15.6232 15.1058 15.9573 14.7717C16.2913 14.4377 16.7444 14.25 17.2168 14.25H58.1856V19.5938C58.1967 21.5288 58.8439 23.4065 60.0274 24.9375ZM83.1373 105.094C83.1373 106.511 82.5743 107.87 81.5722 108.872C80.57 109.874 79.2108 110.438 77.7935 110.438H10.106C8.6888 110.438 7.32959 109.874 6.32745 108.872C5.3253 107.87 4.7623 106.511 4.7623 105.094V8.90625C4.76229 7.49147 5.32334 6.13442 6.3224 5.13268C7.32147 4.13094 8.67702 3.56627 10.0918 3.5625H58.1856V10.6875H17.2168C15.7995 10.6875 14.4403 11.2505 13.4382 12.2526C12.436 13.2548 11.873 14.614 11.873 16.0312V23.1562C11.873 24.5735 12.436 25.9327 13.4382 26.9349C14.4403 27.937 15.7995 28.5 17.2168 28.5H83.1231V64.9052L62.6707 85.3575C62.5904 85.454 62.5211 85.5592 62.4641 85.671C62.4285 85.728 62.3679 85.7601 62.3394 85.8206L57.3021 95.8954C57.1585 96.1987 57.105 96.5368 57.1479 96.8696C57.1909 97.2024 57.3284 97.5159 57.5443 97.7728L55.3284 100.01C55.146 100.172 54.9988 100.37 54.896 100.591C54.7932 100.812 54.7369 101.052 54.7306 101.296C54.7243 101.54 54.7682 101.783 54.8596 102.009C54.9509 102.235 55.0877 102.44 55.2616 102.611C55.4354 102.782 55.6426 102.916 55.8702 103.004C56.0978 103.092 56.341 103.132 56.5848 103.122C56.8285 103.112 57.0676 103.052 57.2872 102.945C57.5068 102.839 57.7022 102.689 57.8614 102.504L60.0167 100.324L60.1521 100.459C60.4162 100.723 60.7569 100.898 61.1258 100.958C61.4947 101.018 61.8732 100.961 62.2076 100.794L72.2824 95.7529C72.3429 95.7244 72.375 95.6638 72.432 95.6282C72.5438 95.5712 72.649 95.5019 72.7455 95.4216L83.1231 85.0476L83.1373 105.094ZM64.4342 89.6254L68.4954 93.6866L61.7801 97.0461L61.2992 96.5616V96.5402H61.2778L61.0926 96.3549L64.4342 89.6254ZM83.6717 79.4936L71.5164 91.6453L66.4399 86.6186L99.4001 53.6584L104.437 58.6958L83.6717 79.4936ZM109.297 53.8686L106.988 56.1771L101.947 51.1361L104.256 48.8276C104.587 48.4966 104.98 48.2341 105.412 48.0549C105.845 47.8758 106.308 47.7836 106.776 47.7836C107.244 47.7836 107.708 47.8758 108.14 48.0549C108.573 48.2341 108.966 48.4966 109.297 48.8276C109.628 49.1586 109.89 49.5516 110.069 49.984C110.249 50.4165 110.341 50.88 110.341 51.3481C110.341 51.8162 110.249 52.2797 110.069 52.7122C109.89 53.1446 109.628 53.5376 109.297 53.8686ZM31.4668 57H74.2168C74.6892 57 75.1423 56.8123 75.4763 56.4783C75.8104 56.1442 75.9981 55.6912 75.9981 55.2188C75.9981 54.7463 75.8104 54.2933 75.4763 53.9592C75.1423 53.6252 74.6892 53.4375 74.2168 53.4375H31.4668C30.9944 53.4375 30.5413 53.6252 30.2073 53.9592C29.8732 54.2933 29.6855 54.7463 29.6855 55.2188C29.6855 55.6912 29.8732 56.1442 30.2073 56.4783C30.5413 56.8123 30.9944 57 31.4668 57ZM31.4668 46.3125H74.2168C74.6892 46.3125 75.1423 46.1248 75.4763 45.7908C75.8104 45.4567 75.9981 45.0037 75.9981 44.5312C75.9981 44.0588 75.8104 43.6058 75.4763 43.2717C75.1423 42.9377 74.6892 42.75 74.2168 42.75H31.4668C30.9944 42.75 30.5413 42.9377 30.2073 43.2717C29.8732 43.6058 29.6855 44.0588 29.6855 44.5312C29.6855 45.0037 29.8732 45.4567 30.2073 45.7908C30.5413 46.1248 30.9944 46.3125 31.4668 46.3125ZM49.2793 99.4828C47.9072 99.5176 46.5609 99.1064 45.4425 98.3108C43.7545 97.215 41.7852 96.6319 39.7728 96.6319C37.7603 96.6319 35.791 97.215 34.1031 98.3108C32.9847 99.1064 31.6383 99.5176 30.2662 99.4828C28.8993 99.52 27.5571 99.1138 26.4401 98.325C24.7708 97.196 22.7942 96.6089 20.7793 96.6435C20.3069 96.6435 19.8538 96.8312 19.5198 97.1652C19.1857 97.4993 18.998 97.9523 18.998 98.4248C18.998 98.8972 19.1857 99.3502 19.5198 99.6843C19.8538 100.018 20.3069 100.206 20.7793 100.206C22.149 100.172 23.4928 100.583 24.609 101.378C26.2783 102.507 28.2549 103.094 30.2698 103.06C32.2865 103.095 34.2651 102.509 35.9377 101.382C37.0709 100.618 38.4063 100.21 39.7728 100.21C41.1393 100.21 42.4747 100.618 43.6078 101.382C45.2804 102.509 47.2591 103.095 49.2757 103.06C49.7482 103.06 50.2012 102.872 50.5353 102.538C50.8693 102.204 51.057 101.751 51.057 101.278C51.057 100.806 50.8693 100.353 50.5353 100.019C50.2012 99.6847 49.7482 99.4971 49.2757 99.4971L49.2793 99.4828ZM31.4668 39.1875H74.2168C74.6892 39.1875 75.1423 38.9998 75.4763 38.6658C75.8104 38.3317 75.9981 37.8787 75.9981 37.4062C75.9981 36.9338 75.8104 36.4808 75.4763 36.1467C75.1423 35.8127 74.6892 35.625 74.2168 35.625H31.4668C30.9944 35.625 30.5413 35.8127 30.2073 36.1467C29.8732 36.4808 29.6855 36.9338 29.6855 37.4062C29.6855 37.8787 29.8732 38.3317 30.2073 38.6658C30.5413 38.9998 30.9944 39.1875 31.4668 39.1875ZM31.4668 64.125H74.2168C74.6892 64.125 75.1423 63.9373 75.4763 63.6033C75.8104 63.2692 75.9981 62.8162 75.9981 62.3438C75.9981 61.8713 75.8104 61.4183 75.4763 61.0842C75.1423 60.7502 74.6892 60.5625 74.2168 60.5625H31.4668C30.9944 60.5625 30.5413 60.7502 30.2073 61.0842C29.8732 61.4183 29.6855 61.8713 29.6855 62.3438C29.6855 62.8162 29.8732 63.2692 30.2073 63.6033C30.5413 63.9373 30.9944 64.125 31.4668 64.125ZM17.2168 64.125C18.2737 64.125 19.3069 63.8116 20.1856 63.2244C21.0644 62.6372 21.7493 61.8027 22.1538 60.8262C22.5582 59.8498 22.6641 58.7753 22.4579 57.7387C22.2517 56.7022 21.7427 55.75 20.9954 55.0026C20.2481 54.2553 19.2959 53.7464 18.2593 53.5402C17.2227 53.334 16.1483 53.4398 15.1718 53.8443C14.1954 54.2487 13.3608 54.9336 12.7736 55.8124C12.1865 56.6912 11.873 57.7244 11.873 58.7812C11.873 60.1985 12.436 61.5577 13.4382 62.5598C14.4403 63.562 15.7995 64.125 17.2168 64.125ZM17.2168 57C17.5691 57 17.9135 57.1045 18.2064 57.3002C18.4993 57.4959 18.7276 57.7741 18.8625 58.0996C18.9973 58.4251 19.0326 58.7832 18.9638 59.1288C18.8951 59.4743 18.7254 59.7917 18.4763 60.0408C18.2272 60.2899 17.9098 60.4595 17.5643 60.5283C17.2188 60.597 16.8606 60.5617 16.5351 60.4269C16.2097 60.2921 15.9315 60.0638 15.7357 59.7709C15.54 59.4779 15.4355 59.1335 15.4355 58.7812C15.4355 58.3088 15.6232 57.8558 15.9573 57.5217C16.2913 57.1877 16.7444 57 17.2168 57ZM22.5605 76.5938C22.5605 75.5369 22.2471 74.5037 21.66 73.6249C21.0728 72.7461 20.2382 72.0612 19.2618 71.6568C18.2853 71.2523 17.2109 71.1465 16.1743 71.3527C15.1377 71.5589 14.1855 72.0678 13.4382 72.8151C12.6909 73.5625 12.1819 74.5146 11.9757 75.5512C11.7695 76.5878 11.8754 77.6623 12.2798 78.6387C12.6843 79.6152 13.3692 80.4497 14.248 81.0369C15.1267 81.6241 16.1599 81.9375 17.2168 81.9375C18.634 81.9375 19.9933 81.3745 20.9954 80.3724C21.9975 79.3702 22.5605 78.011 22.5605 76.5938ZM17.2168 78.375C16.8645 78.375 16.5201 78.2705 16.2272 78.0748C15.9343 77.8791 15.706 77.6009 15.5711 77.2754C15.4363 76.9499 15.401 76.5918 15.4698 76.2462C15.5385 75.9007 15.7082 75.5833 15.9573 75.3342C16.2064 75.0851 16.5238 74.9155 16.8693 74.8467C17.2148 74.778 17.573 74.8133 17.8985 74.9481C18.2239 75.0829 18.5021 75.3112 18.6979 75.6041C18.8936 75.8971 18.998 76.2415 18.998 76.5938C18.998 77.0662 18.8104 77.5192 18.4763 77.8533C18.1423 78.1873 17.6892 78.375 17.2168 78.375ZM31.4668 74.8125H59.9668C60.4392 74.8125 60.8923 74.6248 61.2263 74.2908C61.5604 73.9567 61.7481 73.5037 61.7481 73.0312C61.7481 72.5588 61.5604 72.1058 61.2263 71.7717C60.8923 71.4377 60.4392 71.25 59.9668 71.25H31.4668C30.9944 71.25 30.5413 71.4377 30.2073 71.7717C29.8732 72.1058 29.6855 72.5588 29.6855 73.0312C29.6855 73.5037 29.8732 73.9567 30.2073 74.2908C30.5413 74.6248 30.9944 74.8125 31.4668 74.8125ZM17.2168 46.3125C18.2737 46.3125 19.3069 45.9991 20.1856 45.4119C21.0644 44.8247 21.7493 43.9902 22.1538 43.0137C22.5582 42.0373 22.6641 40.9628 22.4579 39.9262C22.2517 38.8896 21.7427 37.9375 20.9954 37.1901C20.2481 36.4428 19.2959 35.9339 18.2593 35.7277C17.2227 35.5215 16.1483 35.6273 15.1718 36.0318C14.1954 36.4362 13.3608 37.1211 12.7736 37.9999C12.1865 38.8787 11.873 39.9119 11.873 40.9688C11.873 42.386 12.436 43.7452 13.4382 44.7474C14.4403 45.7495 15.7995 46.3125 17.2168 46.3125ZM17.2168 39.1875C17.5691 39.1875 17.9135 39.292 18.2064 39.4877C18.4993 39.6834 18.7276 39.9616 18.8625 40.2871C18.9973 40.6126 19.0326 40.9707 18.9638 41.3163C18.8951 41.6618 18.7254 41.9792 18.4763 42.2283C18.2272 42.4774 17.9098 42.647 17.5643 42.7158C17.2188 42.7845 16.8606 42.7492 16.5351 42.6144C16.2097 42.4796 15.9315 42.2513 15.7357 41.9584C15.54 41.6654 15.4355 41.321 15.4355 40.9688C15.4355 40.4963 15.6232 40.0433 15.9573 39.7092C16.2913 39.3752 16.7444 39.1875 17.2168 39.1875ZM31.4668 81.9375H59.9668C60.4392 81.9375 60.8923 81.7498 61.2263 81.4158C61.5604 81.0817 61.7481 80.6287 61.7481 80.1562C61.7481 79.6838 61.5604 79.2308 61.2263 78.8967C60.8923 78.5627 60.4392 78.375 59.9668 78.375H31.4668C30.9944 78.375 30.5413 78.5627 30.2073 78.8967C29.8732 79.2308 29.6855 79.6838 29.6855 80.1562C29.6855 80.6287 29.8732 81.0817 30.2073 81.4158C30.5413 81.7498 30.9944 81.9375 31.4668 81.9375Z" fill="#17778D"/>
</svg>
