<svg width="118" height="118" viewBox="0 0 118 118" fill="none" xmlns="http://www.w3.org/2000/svg">
<path d="M63.3273 113.825H54.6307C52.6744 113.825 50.7983 113.048 49.4136 111.666C48.0289 110.284 47.2486 108.41 47.2439 106.453V96.9041C44.5989 96.0805 42.0464 94.9851 39.627 93.6355L33.5589 99.6653C30.724 102.447 25.9214 102.421 23.1277 99.6329L16.9799 93.4467C15.6033 92.0588 14.834 90.181 14.8412 88.2261C14.8484 86.2713 15.6315 84.3992 17.0183 83.0214L23.4345 76.6494C22.494 74.7437 21.7021 72.7682 21.0656 70.7406H11.5313C9.5741 70.7328 7.69965 69.9504 6.31766 68.5646C4.93567 67.1787 4.15857 65.3021 4.15625 63.3449V54.6454C4.15781 52.6893 4.93513 50.8138 6.3177 49.4301C7.70028 48.0464 9.57522 47.2676 11.5313 47.2645H21.0804C21.903 44.6238 22.9984 42.076 24.349 39.6623L17.2395 32.482C16.556 31.7929 16.0152 30.9756 15.6482 30.0771C15.2812 29.1785 15.0951 28.2164 15.1008 27.2458C15.1039 26.2774 15.2993 25.3193 15.6755 24.4271C16.0518 23.5348 16.6014 22.7261 17.2926 22.0479L23.4611 15.9089C26.2872 13.1359 31.1222 13.1654 33.8952 15.9443L41.341 23.458C43.229 22.514 45.2144 21.7175 47.2676 21.0891V11.5488C47.2676 7.48078 50.5775 4.17383 54.6426 4.17383H63.351C65.3057 4.17695 67.1794 4.95505 68.5614 6.33754C69.9433 7.72003 70.7207 9.59409 70.723 11.5488V21.1009C72.8532 21.7617 74.9236 22.6015 76.9121 23.6114L84.4287 16.1656C87.2637 13.3808 92.078 13.4221 94.8599 16.201L100.996 22.3842C102.374 23.7618 103.135 25.6174 103.135 27.6057C103.135 28.5752 102.942 29.535 102.568 30.4294C102.193 31.3237 101.645 32.1348 100.955 32.8154L93.8009 39.9249C95.0841 42.2672 96.1284 44.7334 96.9131 47.2822H106.471C108.426 47.2853 110.3 48.0634 111.682 49.4459C113.063 50.8284 113.841 52.7024 113.843 54.6572V63.342C113.842 65.298 113.066 67.1739 111.684 68.5581C110.302 69.9423 108.427 70.7219 106.471 70.7258H96.9131C96.2563 72.8602 95.4143 74.933 94.3968 76.9208L100.766 83.3341C102.141 84.6941 102.902 86.5526 102.902 88.5556C102.902 90.5203 102.126 92.367 100.722 93.7594L94.5531 99.9013C91.7181 102.683 86.8743 102.63 84.1249 99.86L78.1039 93.7919C75.7527 95.084 73.2954 96.1312 70.7673 96.913V106.468C70.7341 108.423 69.9371 110.288 68.5466 111.663C67.1562 113.038 65.2828 113.814 63.3273 113.825ZM39.1816 90.125L40.1167 90.6767C42.9068 92.3345 45.9019 93.6199 49.0257 94.4999L50.0494 94.786V106.447C50.0494 108.967 52.1055 111.017 54.6307 111.017H63.3273C64.5427 111.01 65.7074 110.529 66.5732 109.676C67.4389 108.823 67.9372 107.665 67.9618 106.45V94.8037L68.9855 94.5176C72.0152 93.6694 74.9217 92.4309 77.6319 90.833L78.567 90.2814L86.1102 97.8806C87.8124 99.5975 90.8184 99.627 92.5795 97.9012L98.7421 91.7623C99.6124 90.9009 100.093 89.7592 100.093 88.5497C100.093 87.3019 99.6271 86.1543 98.7805 85.3165L90.9423 77.4194L91.4408 76.5049C92.7683 74.0623 93.7979 71.5164 94.5059 68.944L94.792 67.9145H106.471C108.99 67.9145 111.041 65.8613 111.041 63.3361V54.6513C111.041 52.132 108.99 50.0788 106.471 50.0788H94.795L94.5088 49.0522C93.6648 46.0173 92.4324 43.1042 90.842 40.3851L90.2933 39.447L98.9751 30.8182C99.8483 29.9509 100.329 28.8063 100.329 27.5968C100.329 26.3578 99.8602 25.2073 99.0076 24.3577L92.8716 18.1745C92.0037 17.3343 90.844 16.863 89.6361 16.8597C88.4281 16.8564 87.2658 17.3213 86.3934 18.1568L77.4166 27.0511L76.5021 26.5584C74.1039 25.258 71.5679 24.2299 68.9412 23.4934L67.9146 23.2072V11.5488C67.9146 9.02953 65.8643 6.97633 63.345 6.97633H54.6366C52.1173 6.97633 50.0671 9.02658 50.0671 11.5488V23.2043L49.0405 23.4904C46.474 24.2014 44.0166 25.1867 41.7304 26.4139L40.807 26.9095L31.901 17.9238C30.187 16.2128 27.1751 16.1862 25.4258 17.9061L19.2632 24.0391C18.8336 24.4586 18.4921 24.9596 18.2586 25.5128C18.0251 26.0659 17.9043 26.6601 17.9032 27.2605C17.8981 27.8629 18.0129 28.4602 18.2408 29.0178C18.4687 29.5754 18.8052 30.0821 19.2308 30.5085L27.8536 39.2198L27.302 40.1491C25.645 42.9354 24.3597 45.9265 23.4788 49.0463L23.1926 50.0699H11.5313C9.01195 50.0699 6.9617 52.1231 6.9617 54.6454V63.3449C6.9617 65.8672 9.01195 67.9263 11.5371 67.9351H23.1867L23.4728 68.9617C24.1572 71.4279 25.1396 73.8823 26.3993 76.263L26.886 77.1804L18.9977 85.0068C18.1394 85.8604 17.6546 87.0195 17.6496 88.2301C17.6446 89.4406 18.1199 90.6037 18.9712 91.4643L25.116 97.6475C26.8506 99.3733 29.833 99.391 31.5912 97.6652L39.1816 90.125Z" fill="#17778D"/>
<path d="M58.9999 80.5408C47.1202 80.5408 37.459 70.8766 37.459 58.9999C37.459 47.1173 47.1232 37.4531 58.9999 37.4531C70.8795 37.4531 80.5467 47.1203 80.5467 58.9999C80.5437 70.8796 70.8795 80.5408 58.9999 80.5408ZM58.9999 40.2586C54.0316 40.2648 49.2686 42.2415 45.7557 45.7549C42.2428 49.2683 40.2669 54.0316 40.2615 58.9999C40.2677 63.9677 42.244 68.7303 45.7567 72.2431C49.2695 75.7559 54.0321 77.7321 58.9999 77.7383C63.9682 77.7329 68.7315 75.757 72.2449 72.2441C75.7584 68.7313 77.735 63.9683 77.7412 58.9999C77.7358 54.0311 75.7595 49.2673 72.246 45.7538C68.7325 42.2403 63.9687 40.264 58.9999 40.2586Z" fill="#17778D"/>
</svg>
