<svg width="100" height="100" viewBox="0 0 100 100" fill="none" xmlns="http://www.w3.org/2000/svg">
<g clip-path="url(#clip0_1153_446)">
<path d="M49.9995 36.8859H49.9999C50.8375 36.8887 51.6432 36.565 52.2461 35.9835C52.849 35.402 53.2016 34.6084 53.229 33.7713L53.6509 22.0891C53.6829 21.1914 53.3702 20.3756 52.7472 19.7299C52.124 19.0834 51.3195 18.7418 50.4216 18.7418H49.5779C48.6796 18.7418 47.8753 19.0836 47.2523 19.7299C46.629 20.376 46.3165 21.1918 46.3486 22.0896L46.7704 33.7715C46.7979 34.6086 47.1504 35.4022 47.7533 35.9836C48.3562 36.5651 49.1619 36.8888 49.9995 36.8859ZM49.4738 21.9336C49.4742 21.933 49.48 21.9213 49.5017 21.8988C49.5228 21.877 49.5343 21.8705 49.5341 21.8705C49.5349 21.8703 49.5474 21.8664 49.5781 21.8664H50.4218C50.4517 21.8664 50.4646 21.8701 50.4648 21.8701C50.4773 21.8782 50.4887 21.888 50.4986 21.8992C50.5195 21.9209 50.5257 21.9324 50.5257 21.9324C50.5259 21.9332 50.5294 21.9461 50.5283 21.9766L50.1064 33.6582C50.1052 33.6857 50.0935 33.7116 50.0738 33.7307C50.054 33.7498 50.0276 33.7606 50.0001 33.7607H49.9999C49.9725 33.7605 49.9462 33.7498 49.9265 33.7307C49.9068 33.7117 49.8951 33.6858 49.8939 33.6584L49.472 21.9771C49.4704 21.9465 49.474 21.9336 49.4738 21.9336ZM49.9997 37.5773C47.9593 37.5773 46.2994 39.2373 46.2994 41.2777C46.2994 43.3182 47.9593 44.9781 49.9997 44.9781C52.0402 44.9781 53.7001 43.3182 53.7001 41.2777C53.7001 39.2373 52.0402 37.5773 49.9997 37.5773ZM49.9997 41.8531C49.6824 41.8531 49.4244 41.5951 49.4244 41.2777C49.4244 40.9604 49.6824 40.7023 49.9997 40.7023C50.3171 40.7023 50.5751 40.9604 50.5751 41.2777C50.5751 41.5951 50.3171 41.8531 49.9997 41.8531ZM97.6333 89.0354C96.4322 82.2092 91.6368 76.8152 85.3913 74.6398C87.8521 72.7703 89.4449 69.8147 89.4449 66.4928C89.4449 60.8531 84.8568 56.265 79.2171 56.265C73.5777 56.265 68.9896 60.8531 68.9896 66.4928C68.9896 69.8145 70.5822 72.7701 73.0429 74.6397C71.0813 75.3257 69.2486 76.3356 67.6208 77.6273C66.9862 76.8897 66.3062 76.1924 65.5847 75.5395C63.0847 73.2766 60.1213 71.586 56.9011 70.5856C60.2868 68.341 62.5251 64.4979 62.5251 60.1402C62.5271 58.2268 62.0879 56.3386 61.2417 54.6225C61.7236 54.384 62.1988 54.1315 62.6644 53.8629L67.6111 57.4445C67.8774 57.6377 68.1979 57.7416 68.5269 57.7414C68.7322 57.7416 68.9355 57.7012 69.1251 57.6227C69.3148 57.5442 69.4871 57.429 69.6322 57.2838L75.4238 51.4922C75.6865 51.2294 75.8469 50.8816 75.8764 50.5112C75.9058 50.1408 75.8022 49.7721 75.5843 49.4711L72.0031 44.5246C73.1014 42.6223 73.946 40.5844 74.5154 38.4629L80.5437 37.4981C80.9106 37.4393 81.2446 37.2518 81.4856 36.969C81.7267 36.6863 81.8591 36.3269 81.8591 35.9553V27.7645C81.8591 27.3929 81.7267 27.0335 81.4856 26.7507C81.2446 26.468 80.9106 26.2804 80.5437 26.2217L74.5154 25.2568C73.9462 23.1353 73.1015 21.0973 72.0031 19.1951L75.5843 14.2486C75.8022 13.9477 75.9058 13.5789 75.8764 13.2085C75.8469 12.8381 75.6865 12.4903 75.4238 12.2275L69.6322 6.43594C69.3694 6.17323 69.0216 6.01275 68.6511 5.98329C68.2807 5.95383 67.9119 6.05732 67.6109 6.2752L62.6646 9.85645C60.7623 8.75806 58.7244 7.91345 56.6029 7.34414L55.6378 1.31563C55.5791 0.9487 55.3916 0.61471 55.1088 0.373594C54.8261 0.132479 54.4666 2.38268e-05 54.0951 3.05289e-09H45.9044C45.5329 -2.32151e-05 45.1734 0.13239 44.8907 0.373473C44.6079 0.614556 44.4204 0.948523 44.3617 1.31543L43.3966 7.34375C41.2751 7.91304 39.2372 8.75765 37.3349 9.85606L32.3884 6.275C32.0874 6.05709 31.7186 5.95358 31.3482 5.98303C30.9777 6.01249 30.6299 6.173 30.3671 6.43574L24.5755 12.2273C24.3128 12.4901 24.1523 12.838 24.1229 13.2084C24.0934 13.5789 24.197 13.9477 24.415 14.2486L27.9962 19.1949C26.8979 21.0973 26.0532 23.1351 25.4837 25.2566L19.4556 26.2215C19.0887 26.2802 18.7547 26.4678 18.5136 26.7505C18.2726 27.0333 18.1401 27.3927 18.1402 27.7643V35.9551C18.1401 36.3267 18.2726 36.6861 18.5136 36.9688C18.7547 37.2516 19.0887 37.4391 19.4556 37.4979L25.4839 38.4627C26.0531 40.5843 26.8977 42.6222 27.9962 44.5244L24.415 49.4709C24.1971 49.7719 24.0935 50.1406 24.1229 50.511C24.1524 50.8814 24.3128 51.2292 24.5755 51.492L30.3671 57.2836C30.6299 57.5463 30.9777 57.7068 31.3482 57.7362C31.7186 57.7657 32.0874 57.6622 32.3884 57.4443L37.3351 53.8627C37.8013 54.131 38.276 54.3843 38.7583 54.6225C37.9121 56.3386 37.4729 58.2266 37.4747 60.14C37.4747 64.4977 39.7128 68.3408 43.0986 70.5854C39.8782 71.5857 36.9148 73.2763 34.4148 75.5393C33.6933 76.1922 33.0133 76.8895 32.3786 77.6272C30.7509 76.3354 28.9183 75.3255 26.9568 74.6395C29.4175 72.7699 31.0103 69.8143 31.0103 66.4924C31.0103 60.8527 26.4222 56.2647 20.7827 56.2647C15.1431 56.2647 10.555 60.8527 10.555 66.4924C10.555 69.8141 12.1476 72.7697 14.6083 74.6393C8.36283 76.8147 3.56732 82.2088 2.36615 89.0356C2.23412 89.7869 2.43158 90.5227 2.9224 91.1074C3.41322 91.6922 4.10384 92.0141 4.86712 92.0141H26.8802V92.6428C26.8802 96.6994 30.1804 99.9996 34.237 99.9996H65.7624C69.8193 99.9996 73.1195 96.6994 73.1195 92.6428V92.0141H95.1324C95.8958 92.0141 96.5865 91.692 97.0771 91.1072C97.5679 90.5232 97.7656 89.7873 97.6333 89.0354ZM72.1146 66.4928C72.1146 62.5764 75.3007 59.39 79.2171 59.39C83.1337 59.39 86.3199 62.5762 86.3199 66.4928C86.3199 70.4086 83.1347 73.5943 79.2191 73.5953H79.2152C75.2995 73.5943 72.1146 70.4086 72.1146 66.4928ZM38.0941 50.6709C37.83 50.5034 37.5218 50.4191 37.2092 50.4287C36.8967 50.4383 36.5942 50.5414 36.341 50.7248L31.6347 54.1322L27.7273 50.2246L31.1345 45.5184C31.318 45.2651 31.4212 44.9626 31.4307 44.65C31.4403 44.3374 31.3558 44.0291 31.1882 43.765C29.8194 41.61 28.8346 39.2339 28.2777 36.7424C28.2094 36.4372 28.0511 36.1596 27.8233 35.9454C27.5955 35.7312 27.3087 35.5903 26.9999 35.5408L21.2648 34.6229V29.0967L26.9999 28.1787C27.3087 28.1293 27.5955 27.9883 27.8233 27.7741C28.0511 27.5599 28.2093 27.2823 28.2777 26.9771C28.8346 24.4855 29.8194 22.1094 31.1884 19.9543C31.3559 19.6902 31.4404 19.3819 31.4308 19.0694C31.4211 18.7568 31.3179 18.4543 31.1345 18.201L27.7273 13.4949L31.6349 9.58731L36.341 12.9947C36.5943 13.1781 36.8968 13.2812 37.2094 13.2908C37.5219 13.3003 37.8302 13.2159 38.0943 13.0484C40.2493 11.6795 42.6255 10.6947 45.1171 10.1379C45.4222 10.0696 45.6998 9.9113 45.914 9.68351C46.1282 9.45571 46.2691 9.1689 46.3185 8.86016L47.2369 3.125H52.7628L53.681 8.86035C53.7304 9.16907 53.8714 9.45586 54.0855 9.68364C54.2997 9.91143 54.5773 10.0697 54.8824 10.1381C57.374 10.6951 59.7501 11.6799 61.9052 13.0488C62.1693 13.2163 62.4776 13.3007 62.7901 13.2911C63.1027 13.2814 63.4052 13.1783 63.6585 12.9949L68.3646 9.5875L72.2722 13.4951L68.8648 18.2012C68.6813 18.4545 68.5781 18.757 68.5686 19.0696C68.559 19.3822 68.6435 19.6905 68.8111 19.9545C70.18 22.1095 71.1647 24.4856 71.7216 26.9771C71.7899 27.2823 71.9482 27.5599 72.176 27.7741C72.4038 27.9883 72.6906 28.1293 72.9994 28.1787L78.7345 29.0967V34.6229L72.9994 35.5408C72.6906 35.5903 72.4038 35.7312 72.176 35.9454C71.9482 36.1596 71.7899 36.4373 71.7216 36.7424C71.1647 39.234 70.1798 41.6102 68.8109 43.7652C68.6433 44.0293 68.5589 44.3375 68.5685 44.6501C68.5781 44.9626 68.6813 45.2651 68.8648 45.5184L72.272 50.2246L68.3646 54.1322L63.6583 50.7248C63.405 50.5414 63.1025 50.4382 62.7899 50.4287C62.4773 50.4191 62.1691 50.5035 61.905 50.6711C61.1315 51.1602 60.3286 51.6011 59.5007 51.9912C58.6861 51.0418 57.735 50.2188 56.6785 49.549C63.8189 46.8439 68.9099 39.9365 68.9099 31.86C68.9099 21.4328 60.4267 12.9496 49.9997 12.9496C39.5728 12.9496 31.0896 21.4328 31.0896 31.86C31.0896 39.9369 36.181 46.8445 43.3218 49.5494C42.2649 50.219 41.3135 51.042 40.4988 51.9914C39.6709 51.601 38.8678 51.16 38.0941 50.6709ZM49.9997 47.6451C41.2958 47.6451 34.2146 40.5639 34.2146 31.86C34.2146 23.1559 41.2958 16.0746 49.9997 16.0746C58.7036 16.0746 65.7849 23.1559 65.7849 31.86C65.7849 40.5639 58.7036 47.6451 49.9997 47.6451ZM40.5997 60.1404C40.5997 54.9572 44.8167 50.7404 49.9999 50.7404C55.1831 50.7404 59.4001 54.9572 59.4001 60.1404C59.4001 65.3221 55.1859 69.5377 50.005 69.5404H49.9947C44.8138 69.5375 40.5997 65.3219 40.5997 60.1404ZM13.68 66.4928C13.68 62.5764 16.8661 59.39 20.7827 59.39C24.6992 59.39 27.8853 62.5762 27.8853 66.4928C27.8853 70.4086 24.6999 73.5943 20.7845 73.5953H20.7806C16.8652 73.5943 13.68 70.4086 13.68 66.4928ZM27.0831 88.8895H5.5808C7.1558 81.7973 13.4396 76.7211 20.7808 76.7203H20.7847C24.3468 76.7207 27.7486 77.924 30.5017 80.1287C28.7745 82.7842 27.611 85.766 27.0831 88.8895ZM69.9945 92.6432C69.9945 94.9766 68.096 96.875 65.7624 96.875H34.237C31.9036 96.875 30.0052 94.9766 30.0052 92.6432V90.5369C31.1365 80.344 39.7154 72.668 49.9947 72.6654L49.9999 72.6656L50.005 72.6654C60.2841 72.6682 68.8628 80.344 69.9945 90.5369V92.6432ZM72.9165 88.8895C72.3885 85.7661 71.2249 82.7844 69.4978 80.1289C72.2509 77.9242 75.6527 76.7209 79.215 76.7205H79.2189C86.5599 76.7215 92.8437 81.7979 94.4187 88.8895H72.9165Z" fill="#17778D"/>
</g>
<defs>
<clipPath id="clip0_1153_446">
<rect width="100" height="100" fill="white"/>
</clipPath>
</defs>
</svg>
