<svg width="124" height="124" viewBox="0 0 124 124" fill="none" xmlns="http://www.w3.org/2000/svg">
<path d="M104.773 39.743H79.6129C78.8162 39.743 78.1715 40.3884 78.1715 41.1844C78.1715 41.9804 78.8162 42.6258 79.6129 42.6258H104.773C105.569 42.6258 106.214 41.9804 106.214 41.1844C106.214 40.3884 105.569 39.743 104.773 39.743ZM104.773 55.2233H79.6129C78.8162 55.2233 78.1715 55.8687 78.1715 56.6647C78.1715 57.4608 78.8162 58.1062 79.6129 58.1062H104.773C105.569 58.1062 106.214 57.4608 106.214 56.6647C106.214 55.8687 105.569 55.2233 104.773 55.2233ZM104.773 70.4665H79.6129C78.8162 70.4665 78.1715 71.1119 78.1715 71.9079C78.1715 72.7039 78.8162 73.3493 79.6129 73.3493H104.773C105.569 73.3493 106.214 72.7039 106.214 71.9079C106.214 71.1119 105.569 70.4665 104.773 70.4665ZM72.655 49.5035L66.9583 56.6563L66.2278 55.469C65.8111 54.7898 64.9215 54.5801 64.2458 54.996C63.5674 55.4134 63.3548 56.3009 63.7729 56.9794L65.5789 59.9164C65.8252 60.3161 66.2503 60.5716 66.719 60.5998C66.7486 60.6019 66.7768 60.6026 66.8063 60.6026C67.2441 60.6026 67.6593 60.4034 67.9338 60.0592L74.91 51.2996C75.4055 50.6767 75.3027 49.7702 74.6806 49.274C74.0556 48.7778 73.1505 48.8813 72.655 49.5035ZM72.655 64.7466L66.9583 71.8995L66.2278 70.7121C65.8111 70.0336 64.9215 69.8218 64.2458 70.2392C63.5674 70.6565 63.3548 71.544 63.7729 72.2225L65.5789 75.1595C65.8252 75.5593 66.2503 75.8148 66.719 75.8429C66.7486 75.845 66.7768 75.8457 66.8063 75.8457C67.2441 75.8457 67.6593 75.6465 67.9338 75.3024L74.91 66.5427C75.4055 65.9199 75.3027 65.0134 74.6806 64.5172C74.0556 64.0203 73.1505 64.1244 72.655 64.7466ZM72.655 34.0238L66.9583 41.1767L66.2278 39.9893C65.8111 39.3109 64.9215 39.099 64.2458 39.5164C63.5674 39.9337 63.3548 40.8212 63.7729 41.4997L65.5789 44.4367C65.8252 44.8365 66.2503 45.092 66.719 45.1201C66.7486 45.1222 66.7768 45.1229 66.8063 45.1229C67.2441 45.1229 67.6593 44.9238 67.9338 44.5796L74.91 35.82C75.4055 35.1971 75.3027 34.2906 74.6806 33.7944C74.0556 33.2982 73.1505 33.4017 72.655 34.0238ZM104.773 85.5133H79.6129C78.8162 85.5133 78.1715 86.1587 78.1715 86.9547C78.1715 87.7507 78.8162 88.3961 79.6129 88.3961H104.773C105.569 88.3961 106.214 87.7507 106.214 86.9547C106.214 86.1587 105.569 85.5133 104.773 85.5133ZM72.655 79.7934L66.9583 86.9469L66.2278 85.7596C65.8111 85.0811 64.9215 84.8714 64.2458 85.2867C63.5674 85.704 63.3548 86.5915 63.7729 87.27L65.5789 90.207C65.8252 90.6068 66.2503 90.8622 66.719 90.8904C66.7486 90.8925 66.7768 90.8932 66.8063 90.8932C67.2441 90.8932 67.6593 90.694 67.9338 90.3499L74.91 81.5895C75.4055 80.9667 75.3027 80.0601 74.6806 79.564C74.0556 79.0685 73.1505 79.1712 72.655 79.7934Z" fill="#17778D"/>
<path d="M115.827 15.033H65.2585C65.1762 14.3152 64.5895 13.75 63.849 13.75H5.81836C5.02164 13.75 4.37695 14.3954 4.37695 15.1914V24.8343C4.37695 25.6303 5.02164 26.2757 5.81836 26.2757H6.82815C6.82147 26.602 6.79807 26.9235 6.79807 27.2561C6.79807 37.94 10.2031 48.1685 16.1391 55.3185C16.1512 55.3332 16.1702 55.3382 16.1829 55.3523C16.1918 55.3635 16.1974 55.3773 16.2066 55.3882C18.7395 58.3738 21.5466 60.6624 24.5074 62.2141C13.9405 67.8181 6.79525 81.6251 6.79525 97.1686C6.79525 97.4989 6.81672 97.8204 6.82437 98.1455H5.81836C5.02164 98.1455 4.37695 98.7909 4.37695 99.5869V109.222C4.37695 110.018 5.02164 110.663 5.81836 110.663H63.8462C64.5995 110.663 65.1978 110.08 65.2629 109.345H115.827C117.957 109.345 119.689 107.618 119.689 105.495V18.8815C119.689 16.7595 117.957 15.033 115.827 15.033ZM7.25977 23.3929V16.6328H62.4076V23.3929H61.3561H8.31267H7.25977ZM19.0935 51.6555C18.967 51.7558 18.8398 51.8574 18.7198 51.9447C18.6432 52.0006 18.5724 52.0472 18.4988 52.098C18.3941 52.1702 18.2885 52.2439 18.1908 52.3064C18.1186 52.3526 18.0523 52.3917 17.9843 52.4328C17.8953 52.4866 17.8058 52.5412 17.7247 52.5866C17.7051 52.5976 17.6883 52.6061 17.6691 52.6167C12.5816 46.0249 9.68088 36.8538 9.68088 27.2561C9.68088 26.9254 9.68369 26.5995 9.69073 26.2757H59.9724C59.9809 26.5995 59.9865 26.9254 59.9865 27.2561C59.9865 27.948 59.9739 28.6391 59.9316 29.331C59.9302 29.3598 59.9161 29.6329 59.9161 29.6618C59.888 30.3522 59.8472 31.0434 59.7712 31.8077C59.7683 31.8323 59.7655 31.8746 59.7627 31.9182C59.6937 32.5523 59.6248 33.1738 59.5178 33.8748L59.4981 34.0191C59.4826 34.0796 59.4713 34.1408 59.4629 34.2028C59.4108 34.6363 59.3461 35.0699 59.2306 35.6378C59.1954 35.8624 59.1602 36.0855 59.1124 36.2987C59.1025 36.3438 59.0744 36.4726 59.0687 36.519C59.0617 36.5443 59.0392 36.638 59.0336 36.6633C58.8815 37.434 58.7042 38.1913 58.4747 39.0246C58.4015 39.3694 58.303 39.7136 58.2059 40.0521L58.127 40.328C57.9609 40.8946 57.7822 41.4485 57.5668 42.0714C57.5513 42.1242 57.526 42.184 57.4669 42.3367C57.2726 42.916 57.053 43.4804 56.8236 44.0547C56.6758 44.4411 56.5167 44.8275 56.3309 45.228C55.6792 46.7151 54.9458 48.1333 54.1519 49.4473C53.7506 50.1164 53.33 50.7516 52.9011 51.3666C52.7745 51.5481 52.6443 51.7206 52.5155 51.897C52.3385 52.1397 52.1555 52.3655 51.9747 52.5981C51.7773 52.4877 51.5702 52.3684 51.3296 52.2077C50.8468 51.8945 50.2964 51.4553 49.777 50.9718C49.3618 50.5558 49.0788 50.2243 48.8001 49.8985L48.6481 49.7225C48.2371 49.22 47.75 48.7977 46.9787 48.2846C46.2791 47.8539 45.8146 47.6885 45.4415 47.5562C45.1178 47.4408 44.9024 47.3647 44.4914 47.0917C43.8932 46.6877 43.7031 46.4125 43.461 46.0641C43.157 45.6249 42.7797 45.0788 41.8648 44.5495C41.3946 44.2863 40.9006 44.0688 40.4008 43.8513C39.293 43.3706 38.3373 42.9547 37.6405 41.8905C37.5955 41.8222 37.5448 41.7575 37.4899 41.6984C37.3238 41.4408 37.1183 41.1515 36.8438 40.865C36.7593 40.7482 36.6819 40.6715 36.6439 40.6349C36.6003 40.5906 36.5524 40.5483 36.5017 40.5082C36.4004 40.3984 36.2695 40.2689 36.1006 40.1197L35.85 39.8692C35.287 39.3103 34.3804 39.3103 33.8174 39.8692L33.5922 40.0951C33.5415 40.1472 33.4542 40.2372 33.4106 40.2971L32.9939 40.7538C32.7138 41.0692 32.421 41.4006 32.2366 41.6294C32.2197 41.6484 32.2043 41.6674 32.1874 41.6871C32.1282 41.7497 32.0748 41.8173 32.0269 41.8905C31.3329 42.9518 30.3729 43.3678 29.2623 43.8485C28.7584 44.0667 28.2601 44.2849 27.7632 44.5636C26.8806 45.0809 26.5062 45.6242 26.2064 46.0613C25.9671 46.4104 25.7771 46.6863 25.1887 47.0839C24.7678 47.3626 24.5524 47.4386 24.2273 47.5541C23.85 47.6871 23.3813 47.8532 22.6493 48.3107C21.9173 48.7977 21.4289 49.2207 21.0432 49.6944L20.8785 49.8872C20.597 50.2159 20.3112 50.5509 19.9171 50.9457C19.7063 51.146 19.5003 51.327 19.3 51.4934C19.2291 51.5523 19.1628 51.6005 19.0935 51.6555ZM56.7293 50.755V73.6641C56.6941 73.6057 56.6589 73.5472 56.6237 73.4888C56.2612 72.8858 55.8814 72.3002 55.4896 71.727C55.4231 71.6295 55.3521 71.5384 55.2848 71.442C54.9724 70.9946 54.6551 70.5531 54.3254 70.1254C54.1712 69.925 54.0102 69.7354 53.8528 69.54C53.5998 69.2265 53.3472 68.9132 53.085 68.6115C52.9078 68.4075 52.7253 68.213 52.5443 68.0153C52.358 67.8113 52.1776 67.599 51.987 67.4009V57.0056C52.0378 56.9542 52.0901 56.889 52.141 56.8366C52.5544 56.4107 52.9692 55.9635 53.3932 55.4621C53.4368 55.4185 53.4847 55.3593 53.5326 55.2974C53.9227 54.8328 54.2963 54.3235 54.6712 53.8186C54.8199 53.6184 54.9768 53.4382 55.1228 53.2322C55.641 52.5006 56.1419 51.7332 56.6209 50.9345C56.6575 50.8747 56.6941 50.8148 56.7293 50.755ZM19.5849 54.8371C19.6379 54.8042 19.6964 54.7633 19.7508 54.7283C19.8136 54.6881 19.8762 54.6468 19.9408 54.6037C20.0761 54.5135 20.2148 54.416 20.3575 54.313C20.4285 54.2618 20.498 54.2122 20.5708 54.1577C20.7242 54.0426 20.8817 53.9167 21.0415 53.7863C21.1062 53.7336 21.1687 53.6856 21.2343 53.6303C21.4615 53.4385 21.6927 53.2345 21.9286 53.01C22.4142 52.5251 22.7436 52.1408 23.0688 51.7622L23.2532 51.5461C23.4728 51.2758 23.7613 51.0337 24.2118 50.7339C24.6411 50.465 24.8818 50.3799 25.1887 50.2715C25.5786 50.1335 26.0642 49.9618 26.7919 49.4804C27.8434 48.7688 28.27 48.1481 28.5824 47.6941C28.8006 47.3753 28.8921 47.2437 29.1962 47.0649C29.5847 46.8481 29.9943 46.6729 30.4067 46.4941C31.6539 45.9543 33.1994 45.285 34.3593 43.5881C34.3847 43.5592 34.4044 43.5332 34.4213 43.5107C34.4367 43.4938 34.4508 43.4762 34.4649 43.4586C34.5648 43.3326 34.7112 43.1637 34.8703 42.9835C34.9435 43.0736 35.0195 43.1848 35.1152 43.3347C35.1546 43.3981 35.1997 43.4586 35.2489 43.5149C35.2644 43.5339 35.2799 43.5529 35.2968 43.5719C36.4581 45.2822 38.0051 45.9536 39.2522 46.4955C39.6633 46.6743 40.0701 46.8481 40.4389 47.0551C40.7767 47.25 40.8682 47.383 41.0906 47.704C41.4031 48.1551 41.8296 48.7731 42.8881 49.4881C43.6046 49.9632 44.0888 50.1349 44.4773 50.2729C44.7842 50.382 45.0263 50.4678 45.4218 50.7107C45.9061 51.0337 46.1946 51.2765 46.441 51.5764L46.6099 51.7727C46.9308 52.1479 47.2587 52.53 47.7754 53.0452C48.4623 53.6857 49.1309 54.2185 49.7461 54.6168C49.8579 54.6913 49.967 54.7616 50.0732 54.8281C49.8983 55.0083 49.7219 55.1944 49.5504 55.3579C49.5502 55.3581 49.5506 55.3578 49.5504 55.3579C49.5416 55.3664 49.5325 55.3762 49.5237 55.3847C47.1349 57.7875 44.5153 59.5491 41.6579 60.633C41.5485 60.6583 41.4084 60.6976 41.2525 60.7482C41.2112 60.7611 41.1644 60.7818 41.1216 60.7965C41.0215 60.8317 40.9241 60.8649 40.8129 60.9123C40.6695 60.9722 40.5214 61.048 40.3701 61.1294C40.3422 61.1445 40.3164 61.1556 40.2882 61.1715C40.1454 61.252 40.0024 61.3498 39.8576 61.4527C39.8184 61.4804 39.7798 61.4995 39.7407 61.529C39.727 61.5371 39.7169 61.5515 39.7034 61.56C39.6755 61.5816 39.6474 61.5959 39.6196 61.6183C39.6162 61.6211 39.6149 61.6252 39.6115 61.628C39.6066 61.6315 39.602 61.6338 39.5971 61.6373L39.4085 61.7915C39.3838 61.8118 39.3266 61.8666 39.274 61.9177C39.2713 61.9207 39.2675 61.9222 39.2649 61.9252L39.2127 61.9777C39.2087 61.9818 39.1987 61.9913 39.1959 61.9942L39.1673 62.0234L39.0383 62.1532C39.0357 62.1561 39.0344 62.1589 39.0318 62.1618L39.0298 62.1638C38.9857 62.2131 38.9601 62.2602 38.9204 62.3091C38.8178 62.4357 38.7134 62.5625 38.6367 62.6857C38.4178 63.0357 38.2967 63.3618 38.2182 63.6343C38.1781 63.7703 38.1479 63.8947 38.1206 64.0074C38.08 64.1576 38.04 64.2565 37.9928 64.3376C37.9629 64.3868 37.9354 64.4345 37.8854 64.4885C37.8605 64.5153 37.842 64.5347 37.8233 64.5517C37.761 64.6058 37.6999 64.6229 37.4645 64.6884C37.2507 64.7478 36.9671 64.8329 36.6318 64.9781C36.3769 65.0872 36.0931 65.2278 35.767 65.4393C35.4535 65.6578 35.1902 65.8819 34.9548 66.1056C34.9163 66.142 34.8711 66.1782 34.8345 66.2145C34.5919 65.9719 34.3099 65.7582 34.0182 65.5514C33.961 65.5104 33.9172 65.46 33.8582 65.4203C33.8563 65.4191 33.8547 65.4184 33.8528 65.4172C33.8516 65.4165 33.8509 65.4154 33.8498 65.4147C33.7527 65.3512 33.6655 65.3062 33.574 65.2536C32.9942 64.9197 32.5221 64.778 32.2 64.6884C32.0439 64.645 31.9646 64.6228 31.9104 64.597C31.8634 64.5721 31.8348 64.5431 31.7834 64.4871C31.7111 64.4099 31.6678 64.3443 31.6365 64.2759C31.6128 64.2181 31.5938 64.1565 31.5751 64.0697C31.5568 63.9888 31.53 63.9071 31.4962 63.8283C31.4662 63.7137 31.4293 63.5866 31.3823 63.4509C31.3565 63.3751 31.3181 63.291 31.2841 63.2097C31.2613 63.1555 31.2453 63.1057 31.2183 63.0492C31.0779 62.7536 30.8775 62.4311 30.577 62.099L30.4025 61.9238C30.3968 61.9173 30.3888 61.914 30.383 61.9076L30.3589 61.8837C30.3251 61.8506 30.2294 61.7704 30.1942 61.7408L30.0547 61.6298C30.0512 61.6269 30.0499 61.6226 30.0464 61.6197C30.0349 61.6105 30.0233 61.6048 30.0119 61.5956L29.9732 61.5648C29.9688 61.5618 29.9641 61.5603 29.9597 61.5572C29.9467 61.5491 29.9371 61.5353 29.9239 61.5275C29.8762 61.4916 29.8289 61.4679 29.7811 61.4346C29.6453 61.3393 29.5114 61.2473 29.3773 61.1716C29.3429 61.1522 29.3106 61.138 29.2766 61.1198C29.1215 61.0371 28.9704 60.9615 28.8238 60.9014C28.8049 60.8936 28.7888 60.8888 28.7703 60.8814C28.6214 60.8223 28.4788 60.7696 28.3454 60.73C28.2572 60.7029 28.1858 60.6863 28.1087 60.6669C28.068 60.6569 28.0196 60.6413 27.9814 60.633C27.9802 60.6327 27.9791 60.6332 27.978 60.6329C27.9643 60.6298 27.9452 60.6239 27.9321 60.621C24.9353 59.4597 22.1341 57.5172 19.5849 54.8371ZM49.1042 59.608V64.8061C47.8439 63.8046 46.5318 62.9378 45.1693 62.2167C46.5319 61.4986 47.8424 60.6158 49.1042 59.608ZM28.0256 63.7459C28.1099 63.7907 28.1907 63.84 28.2671 63.892L28.4853 64.0831C28.4885 64.0867 28.4903 64.0901 28.4934 64.0936C28.5522 64.1598 28.5914 64.2223 28.6232 64.2998C28.6262 64.3068 28.63 64.3122 28.6329 64.3194C28.6665 64.4068 28.6929 64.5142 28.7288 64.6729C28.7485 64.7637 28.7795 64.8524 28.8175 64.9368C28.836 65.0039 28.8631 65.0789 28.888 65.1519C28.9005 65.1895 28.9103 65.2248 28.9245 65.2632C28.9324 65.2839 28.9439 65.3063 28.9524 65.3273C29.0911 65.6816 29.3045 66.0684 29.6719 66.4585C29.947 66.7504 30.2128 66.9369 30.467 67.0812C30.8302 67.2901 31.1671 67.3971 31.4413 67.4726C31.706 67.5458 31.9131 67.6138 32.192 67.784C32.2177 67.7997 32.2362 67.804 32.2634 67.8217C32.5136 67.9899 32.7248 68.176 32.9022 68.3711C33.0727 68.5624 33.2187 68.7722 33.3388 69.0105C33.358 69.0857 33.383 69.1603 33.4127 69.2342C33.4416 69.3452 33.4641 69.4109 33.4641 69.4109C33.4665 69.4181 33.4719 69.4232 33.4745 69.4303C33.4789 69.4426 33.4857 69.4679 33.4894 69.4778C33.5265 69.5731 33.5844 69.6537 33.6389 69.7366C33.6583 69.7658 33.6701 69.8004 33.6915 69.8278C33.9609 70.1789 34.3793 70.3942 34.8337 70.3942C34.8604 70.3942 34.8872 70.3935 34.9139 70.3921C35.3975 70.3653 35.8196 70.0948 36.062 69.695C36.0643 69.6913 36.0651 69.6867 36.0674 69.6829C36.1344 69.5701 36.1937 69.4513 36.2287 69.3201C36.2343 69.3004 36.2568 69.2174 36.3033 69.0794C36.3087 69.0645 36.3117 69.0487 36.3164 69.0334C36.3199 69.0225 36.3267 69.0064 36.3296 68.9968C36.3302 68.9955 36.3307 68.9941 36.3314 68.9929C36.3884 68.8731 36.4885 68.7038 36.6392 68.5145C36.6492 68.5021 36.6552 68.4917 36.6655 68.4791C36.7003 68.4369 36.7499 68.3908 36.7903 68.3468C36.9466 68.1788 37.1346 68.0033 37.3885 67.8302C37.5565 67.7202 37.6927 67.6511 37.8233 67.5984C37.9549 67.5473 38.0803 67.5126 38.2204 67.4741C38.6155 67.3655 39.1363 67.2021 39.689 66.7288C39.7894 66.6435 39.8888 66.5679 39.9912 66.4592C40.1454 66.296 40.2696 66.1337 40.3773 65.9719C40.3936 65.9476 40.4032 65.9247 40.4187 65.9005C40.4948 65.7798 40.5669 65.6591 40.6239 65.5391C40.7582 65.262 40.8385 65.0068 40.8958 64.7806C40.9046 64.7485 40.916 64.7162 40.9245 64.6841C41.0086 64.3316 41.0399 64.2405 41.2265 64.0404L41.2348 64.0322L41.3418 63.932C41.3583 63.9205 41.3744 63.9084 41.3905 63.8962C41.4692 63.8423 41.5533 63.7914 41.6405 63.745C44.4778 64.8458 47.1296 66.6171 49.5321 69.0182C49.8583 69.3428 50.1736 69.6887 50.4884 70.0353C50.5873 70.1443 50.6916 70.2453 50.7892 70.3562C50.9715 70.5633 51.144 70.787 51.3222 71.0013C51.5403 71.2635 51.7634 71.5194 51.9744 71.7911C52.7449 72.7852 53.4721 73.8487 54.1505 74.9753C54.2812 75.1907 54.3937 75.4233 54.5202 75.6427C54.8618 76.2334 55.202 76.8264 55.5154 77.4515C55.6783 77.7759 55.8193 78.1181 55.9738 78.4495C56.2412 79.025 56.5109 79.5983 56.7533 80.1964C58.8534 85.3475 59.9879 91.1953 59.9879 97.1686C59.9879 97.4972 59.9837 97.8224 59.9753 98.1455H55.9952C55.9698 98.1357 55.9672 98.1361 55.9354 98.1229C55.9346 98.1226 55.9338 98.1227 55.933 98.1223C55.9304 98.1213 55.9283 98.1205 55.9255 98.1194C55.3625 97.89 53.8774 97.1911 52.2544 95.642C52.0067 95.4062 51.8026 95.1803 51.6365 94.9959L51.3226 94.6285C50.7722 93.9761 50.2035 93.3018 49.0605 92.579C48.2413 92.0476 47.6895 91.8534 47.2475 91.6978C46.8661 91.5634 46.5916 91.467 46.0891 91.1327C45.5253 90.7579 45.2426 90.4619 45.0136 90.1615C44.9373 90.0614 44.8669 89.9608 44.794 89.8567C44.4492 89.3626 44.0184 88.7482 43.0078 88.176C42.463 87.8705 41.8887 87.6178 41.306 87.3645C39.9532 86.774 38.7849 86.2644 37.9164 84.9511C37.5772 84.4444 37.2337 83.9524 36.765 83.502L35.8359 82.6011C35.2644 82.0458 34.3523 82.0598 33.7977 82.6306C33.7808 82.6482 32.0804 84.3979 30.8909 85.4564C30.7122 85.6141 30.5813 85.6577 30.1899 85.771C29.6565 85.9266 28.9245 86.1405 28.0109 86.8246C27.4493 87.2343 27.1973 87.5411 26.9946 87.7875C26.8525 87.962 26.7568 88.0774 26.4738 88.2991C25.9882 88.6792 25.6912 88.7805 25.2422 88.934C24.8241 89.0768 24.3033 89.2549 23.6487 89.6441C22.5606 90.279 22.0989 90.9131 21.7287 91.4219C21.4416 91.8154 21.1938 92.156 20.5562 92.6121C19.8481 93.1132 19.4132 93.7495 18.9923 94.3646C18.3856 95.2528 17.8113 96.091 16.2728 96.835L13.5847 98.1455H9.69073C9.68229 97.8224 9.67806 97.4972 9.67806 97.1686C9.67806 81.6041 17.1985 67.9582 28.0256 63.7459ZM50.7173 98.1455H19.5286C19.5306 98.1438 19.532 98.142 19.534 98.1404C19.7398 97.9649 19.9229 97.7892 20.0932 97.6139C20.1408 97.5649 20.1825 97.5172 20.2277 97.4685C20.3465 97.3402 20.4594 97.2137 20.563 97.0881C20.6076 97.034 20.6506 96.9814 20.6927 96.928C20.7936 96.8004 20.8885 96.6762 20.9773 96.5538C21.0057 96.5147 21.035 96.4762 21.0624 96.4377C21.172 96.2837 21.276 96.1336 21.3726 95.9925C21.6879 95.5315 21.9371 95.1669 22.2284 94.9607C23.2504 94.2294 23.6994 93.6136 24.0597 93.1188C24.3666 92.6965 24.5355 92.4643 25.1127 92.1279C25.5195 91.8858 25.8221 91.7816 26.174 91.6619C26.7399 91.4684 27.3817 91.2495 28.2488 90.5703C28.7823 90.1537 29.0371 89.8433 29.2243 89.616C29.3665 89.4428 29.4439 89.3478 29.724 89.143C30.2336 88.7608 30.5714 88.663 30.9965 88.5384C31.5033 88.3913 32.1325 88.2076 32.8053 87.6115C33.4627 87.0259 34.2425 86.2679 34.8506 85.6641C35.0814 85.9069 35.2912 86.2116 35.5164 86.5473C36.8508 88.5659 38.6061 89.3316 40.1545 90.0066C40.6486 90.2219 41.137 90.4331 41.5931 90.6879C42.0309 90.9356 42.1562 91.1151 42.432 91.5092C42.7924 92.0251 43.2865 92.731 44.4928 93.5341C45.2966 94.0669 45.8469 94.2611 46.2889 94.4167C46.6634 94.5483 46.9604 94.6524 47.5051 95.0065C48.2864 95.5012 48.6186 95.8933 49.1197 96.4873L49.4772 96.9067C49.7052 97.1594 49.96 97.4388 50.2669 97.7295C50.4175 97.8738 50.5681 98.0124 50.7173 98.1455ZM62.4048 107.781H7.25977V101.028H8.30844H13.9178H55.3836H55.7468H61.3561H62.4048V107.781ZM64.9981 98.7641C64.7367 98.3989 64.33 98.1455 63.8462 98.1455H62.8411C62.849 97.8204 62.8707 97.4989 62.8707 97.1686C62.8707 91.0197 61.7222 84.9901 59.6121 79.6178V44.8395C59.8161 44.3237 60.0146 43.8066 60.1625 43.3516C60.2258 43.2031 60.2878 43.0321 60.3103 42.9526C60.5186 42.3529 60.7143 41.7533 60.8987 41.1226L60.9775 40.8439C61.0929 40.4399 61.2097 40.0289 61.2731 39.7073C61.4983 38.9035 61.6954 38.0667 61.8629 37.2285C61.8995 37.0807 61.9319 36.9406 61.9276 36.9237C61.9868 36.6555 62.0332 36.3733 62.074 36.1045C62.1782 35.6111 62.2556 35.117 62.3161 34.6236C62.3443 34.4913 62.3626 34.3555 62.3767 34.2387C62.4808 33.5686 62.5554 32.8972 62.6357 32.1378C62.6385 32.1103 62.6427 32.0561 62.6469 32.0019C62.7215 31.2707 62.7652 30.5261 62.7835 29.9208C62.8074 29.7533 62.8116 29.5851 62.8088 29.5055C62.8538 28.756 62.8693 28.0057 62.8693 27.2561C62.8693 26.9237 62.8487 26.6019 62.8406 26.2757H63.849C64.3521 26.2757 64.7731 26.0027 65.0308 25.6127H109.096V98.7641H64.9981ZM116.807 105.495C116.807 106.028 116.367 106.462 115.827 106.462H65.2904V101.647H110.537C111.334 101.647 111.978 101.002 111.978 100.206V24.1713C111.978 23.3753 111.334 22.7299 110.537 22.7299H65.2904V17.9159H115.827C116.367 17.9159 116.807 18.3487 116.807 18.8815V105.495Z" fill="#17778D"/>
<path d="M41.1308 53.4812C41.3588 53.6135 41.6066 53.6761 41.8529 53.6761C42.3498 53.6761 42.8326 53.4192 43.1 52.9589C43.5012 52.2699 43.2661 51.388 42.5778 50.9883C42.4202 50.8968 42.2541 50.7926 42.0781 50.6744C41.4165 50.231 40.5227 50.4069 40.0779 51.0664C39.6345 51.7273 39.809 52.6225 40.4706 53.0673C40.7029 53.2236 40.9225 53.3601 41.1308 53.4812ZM29.1941 53.0673C30.506 52.1883 31.2887 51.3127 31.8236 50.5948C31.8827 50.5695 31.9418 50.5435 32.0023 50.5181L32.1642 50.447C32.899 50.1275 33.8407 49.7165 34.8331 49.0647C35.8254 49.7165 36.7671 50.1275 37.5019 50.447C38.2311 50.7694 39.0813 50.4308 39.3994 49.7017C39.7175 48.9718 39.3839 48.1223 38.6534 47.8049C37.8032 47.434 36.746 46.973 35.7368 46.1615C35.2075 45.7378 34.4586 45.7378 33.9294 46.1615C32.9201 46.973 31.863 47.434 31.0114 47.8049L30.8579 47.8718C30.6454 47.9633 30.4357 48.0548 30.2386 48.1526C30.0204 48.2596 29.8332 48.4208 29.6938 48.6199C29.4208 49.0113 28.8521 49.827 27.5894 50.673C26.9279 51.1157 26.7519 52.0116 27.1939 52.6725C27.4726 53.0877 27.9287 53.3115 28.3932 53.3115C28.6691 53.3115 28.9478 53.2327 29.1941 53.0673ZM24.0859 52.7893C23.7818 53.1384 23.4609 53.503 22.9781 53.9886C22.4164 54.5531 22.4192 55.4659 22.9837 56.0268C23.2652 56.307 23.6326 56.4463 24 56.4463C24.3702 56.4463 24.7404 56.3049 25.0219 56.0212C25.5611 55.4793 25.9186 55.0739 26.2592 54.684C26.7815 54.0843 26.7195 53.1736 26.1199 52.6507C25.5231 52.1284 24.6123 52.189 24.0859 52.7893ZM41.2265 92.6244C41.0942 92.5476 40.9562 92.4604 40.807 92.3618C40.1454 91.9205 39.2502 92.1 38.8082 92.7637C38.3676 93.426 38.5478 94.3212 39.2108 94.7618C39.4107 94.8955 39.5993 95.0124 39.7766 95.1158C40.0047 95.2489 40.2538 95.3115 40.5002 95.3115C40.9971 95.3115 41.4799 95.0553 41.7473 94.595C42.1485 93.9067 41.9148 93.0248 41.2265 92.6244ZM37.8721 89.9119C37.1641 89.6022 36.2815 89.2172 35.4482 88.5472C34.9189 88.1235 34.1701 88.1235 33.6408 88.5472C32.8089 89.2158 31.9277 89.6008 31.0958 89.9632C30.9086 90.0442 30.7242 90.1244 30.5497 90.2103C30.3329 90.3173 30.1457 90.4784 30.0063 90.6776C29.7811 90.9992 29.3138 91.6679 28.2764 92.3639C27.6148 92.8073 27.4388 93.7026 27.8822 94.3642C28.1595 94.7787 28.6156 95.0025 29.0801 95.0025C29.356 95.0025 29.6347 94.9237 29.8811 94.7583C30.9931 94.013 31.6673 93.2705 32.1318 92.656C32.167 92.6405 32.2036 92.6251 32.2388 92.6096L32.3725 92.5519C32.9722 92.29 33.7351 91.9571 34.5445 91.4412C35.3553 91.9585 36.1182 92.2914 36.7193 92.554C37.4456 92.8707 38.2986 92.5385 38.6168 91.8093C38.9349 91.0795 38.6027 90.23 37.8721 89.9119ZM24.9262 94.5753C24.7587 94.7618 24.5687 94.9652 24.3308 95.2045C23.7692 95.769 23.772 96.6811 24.3364 97.2428C24.618 97.5222 24.9853 97.6622 25.3527 97.6622C25.7229 97.6622 26.0931 97.5208 26.3747 97.2371C26.652 96.9584 26.8758 96.7198 27.0714 96.5024C27.6035 95.9104 27.5543 94.999 26.9631 94.4669C26.3719 93.9348 25.4611 93.9841 24.9262 94.5753Z" fill="#17778D"/>
</svg>
